<?xml version="1.0" encoding="UTF-8" standalone="no"?>
<!-- Created with Inkscape (http://www.inkscape.org/) -->

<svg
   version="1.1"
   id="svg41"
   width="352"
   height="352"
   viewBox="0 0 352 352"
   sodipodi:docname="mqtt-logo2.svg"
   inkscape:version="1.1 (c4e8f9e, 2021-05-24)"
   xmlns:inkscape="http://www.inkscape.org/namespaces/inkscape"
   xmlns:sodipodi="http://sodipodi.sourceforge.net/DTD/sodipodi-0.dtd"
   xmlns="http://www.w3.org/2000/svg"
   xmlns:svg="http://www.w3.org/2000/svg">
  <defs
     id="defs45" />
  <sodipodi:namedview
     id="namedview43"
     pagecolor="#ffffff"
     bordercolor="#999999"
     borderopacity="1"
     inkscape:pageshadow="0"
     inkscape:pageopacity="0"
     inkscape:pagecheckerboard="0"
     showgrid="false"
     inkscape:zoom="2.1789773"
     inkscape:cx="188.85007"
     inkscape:cy="176"
     inkscape:window-width="1792"
     inkscape:window-height="951"
     inkscape:window-x="1977"
     inkscape:window-y="31"
     inkscape:window-maximized="0"
     inkscape:current-layer="g47" />
  <g
     inkscape:groupmode="layer"
     inkscape:label="Image"
     id="g47">
    <g
       id="g2581"
       transform="matrix(0.86066111,0,0,0.86965855,21.623612,24.762325)">
      <path
         style="fill:#fcfcfc;stroke-width:1.33333"
         d="m 13.67668,334.89293 c 0,0 -7.5107789,0.5151 -6.4977069,4.00089 1.440301,4.95581 2.0978859,-5.47964 7.2709879,-3.93075 3.16035,0.94624 11.682756,10.82836 6.52194,6.31287 z m 141.91936,8.05302 C 153.52676,294.26136 122.90795,245.97462 77.373031,219.58596 58.517964,208.65896 28.405672,199.94595 9.4969192,199.94595 H 0.70636418 v -27.20689 -27.2069 l 8.33333302,0.59664 c 33.7427858,2.41591 61.1709878,9.91482 87.5793468,23.9443 65.045956,34.55576 105.410236,96.72488 111.374716,171.53952 l 0.82381,10.33333 h -26.41951 -26.41949 z m 111.35389,-6.66667 C 264.17786,283.96864 243.1318,230.01583 209.08768,187.94595 198.11597,174.38772 174.51048,151.69924 160.70637,141.44414 117.86325,109.61587 64.684315,90.736862 13.04238,89.022063 l -12.33065082,-0.409446 -0.0027,-27.128307 -0.0027,-27.128307 14.33333282,0.899344 c 71.854846,4.508526 136.360238,29.895544 190.833098,75.105083 66.56401,55.24453 108.72009,138.83189 113.2665,224.58552 l 0.90128,17 h -26.1302 -26.1302 z m 65.38226,7.08662 c -5.36303,-0.63085 17.50951,0.94266 18.94981,-4.01315 1.01308,-3.48579 -13.0649,-4.91956 -9.72058,1.37954 l 3.00057,5.65165 -8.97892,0.63024 c -9.66672,-0.78966 9.15398,-2.18911 -3.25088,-3.64828 z M 348.87324,205.82659 C 339.83606,183.33507 320.09586,149.91392 300.91046,124.62324 287.77317,107.3053 250.48385,70.064247 232.98593,56.786602 205.2154,35.713974 176.67686,19.179358 146.0397,6.411817 l -15.33333,-6.389919 57.46775,-0.03797 57.46774,-0.03797 10.53226,7.539418 c 32.34665,23.155058 56.51297,46.364999 83.92762,80.606226 l 12.63427,15.780348 -0.34815,54.91764 -0.34816,54.91764 z M 18.260342,15.622177 l -3.32712,-3.744024 7.666667,0.05219 c 7.503058,0.05108 -2.515175,-6.3351622 -6.429814,-4.6072012 -4.997267,2.205846 -2.057946,2.3785068 -3.537359,7.3152672 -0.932857,3.112918 10.150876,6.073803 5.627626,0.983768 z M 341.73549,15.087082 c 0,-2.970829 -0.87839,-3.06103 -5.29761,-4.98516 -4.06918,-1.7717218 -15.19998,5.145232 -8.37862,1.82842 l 9.04346,2.232903 v 0 c 0,0 6.12503,3.661887 5.75836,3.661887 -0.36666,0 -1.12559,-1.736948 -1.12559,-2.73805 z"
         id="path305"
         sodipodi:nodetypes="csssccssscccsssccccsssscccssscccccsscccsssscccsscccsscssssssscss" />
      <path
         style="fill:#5f0067;stroke-width:1.33333"
         d="M 13.532063,350.57278 C 8.1068162,348.93983 3.5910942,344.27702 2.0450692,338.71163 1.2500752,335.8498 0.71822918,307.17998 0.71376418,266.94595 l -0.0074,-67 H 9.4969192 c 18.9087528,0 49.0210448,8.71301 67.8761118,19.64001 26.838789,15.55376 49.700479,39.6332 63.004019,66.35999 8.24392,16.562 14.36105,39.32376 15.22895,56.66667 l 0.4337,8.66666 -69.333336,0.22479 c -38.133333,0.1236 -71.061752,-0.29544 -73.174265,-0.93129 z m 194.601317,-7.62683 c -3.9037,-44.745 -17.108,-80.72907 -41.60314,-113.37605 C 146.28898,202.59248 121.53446,182.25616 90.706328,167.27908 66.622136,155.57838 42.942721,148.86123 20.039661,147.23304 14.172995,146.81598 7.4111482,146.17636 5.0133352,145.81166 L 0.65367518,145.14858 1.0133352,116.88059 1.3729952,88.612614 13.372995,89.04213 c 51.765982,1.852861 104.571645,20.63424 147.333335,52.40201 13.80411,10.2551 37.4096,32.94358 48.38131,46.50181 34.04412,42.06988 55.09018,96.02269 57.86225,148.33333 l 0.83021,15.66667 h -29.43076 -29.43076 z m 112.0418,7.50708 c -0.31942,-1.01223 -0.91424,-9.04041 -1.32178,-17.84041 C 317.02954,293.23115 305.6808,251.12848 286.52946,212.69416 254.99237,149.40322 204.4229,99.404922 140.03966,67.858942 100.20018,48.338719 61.086871,38.146468 14.879765,35.244446 L 0.38653718,34.334203 0.97569018,23.109368 C 1.6407462,10.438394 3.7734122,6.2048018 11.467775,2.2813518 c 4.141606,-2.11185602 9.943958,-2.33145602 61.6522,-2.33333302 l 57.080315,-0.0021 14.87035,6.09047602 c 30.2898,12.4058562 59.93778,29.5205292 87.91525,50.7501762 17.49792,13.277645 54.78724,50.518699 67.92453,67.836639 19.36718,25.53032 36.45894,54.27778 47.10183,79.22286 l 4.7928,11.23346 -0.38269,62.16039 c -0.41935,68.11351 -0.18344,66.12292 -8.48062,71.55944 -4.58478,3.00407 -22.93741,4.28101 -23.76656,1.65364 z M 339.89265,87.862702 C 313.17938,54.325291 288.45913,30.596559 256.10512,7.4358878 l -10.60122,-7.58889402 47.5055,0.38281 c 45.57741,0.367273 47.6582,0.494533 51.26788,3.13552202 8.26598,6.047732 8.5023,7.6778802 8.11418,55.9728422 l -0.3518,43.774622 z"
         id="path303" />
    </g>
  </g>
</svg>
